# xmcd
#
# Track frame offsets:
#	150
#	18487
#	33440
#	45026
#	61849
#	75927
#	87670
#	98695
#	110344
#	123834
#
# Disc length: 1913 seconds
#
# Revision: 1
# Processed by: cddbd v1.5.2PL0 Copyright (c) Steve Scherf et al.
# Submitted via: audiograbber 1.83.01
#
DISCID=6707770a
DTITLE=Timmy's Organism - Rise Of The Green Gorilla
DYEAR=2010
DGENRE=
TTITLE0=Ugly Dream
TTITLE1=Pretty State
TTITLE2=Oafeus Clods
TTITLE3=Building The Friend-Ship
TTITLE4=Gorilla Garden Part I
TTITLE5=Give It To Me Babe
TTITLE6=Impregnate The Martian Queen
TTITLE7=Move To The Sun Wave
TTITLE8=Silver Mountain
TTITLE9=The Traveler
EXTD=
EXTT0=
EXTT1=
EXTT2=
EXTT3=
EXTT4=
EXTT5=
EXTT6=
EXTT7=
EXTT8=
EXTT9=
PLAYORDER=
